<svg width="26" height="26" viewBox="0 0 26 26" fill="none" xmlns="http://www.w3.org/2000/svg">
<rect width="26" height="26" fill="#1E1E1E"/>
<g clip-path="url(#clip0_0_1)">
<rect width="1920" height="7793" transform="translate(-595 -2133)" fill="white"/>
<rect x="1325" y="939" width="1920" height="1845" transform="rotate(-180 1325 939)" fill="url(#paint0_linear_0_1)"/>
<g filter="url(#filter0_d_0_1)">
<path d="M-447 -507H65V44C65 55.0457 56.0457 64 45 64H-427C-438.046 64 -447 55.0457 -447 44V-507Z" fill="#F0F3FF"/>
<rect x="-445" y="-507" width="510" height="571" rx="20" fill="white"/>
<path d="M22.7501 4.33336H2.16675V6.50003H4.65841L8.21175 16.25C8.43525 16.8822 8.84882 17.4298 9.39576 17.8177C9.9427 18.2056 10.5962 18.4148 11.2667 18.4167H20.5834V16.25H11.2667C11.0441 16.2499 10.8269 16.1812 10.6447 16.0533C10.4625 15.9254 10.3241 15.7444 10.2484 15.535L9.75008 14.0834H19.8034C20.2736 14.0827 20.7308 13.9291 21.106 13.6457C21.4813 13.3623 21.7541 12.9646 21.8834 12.5125L23.8334 5.7092C23.8774 5.56694 23.8917 5.41712 23.8752 5.26912C23.8588 5.12111 23.812 4.97809 23.7378 4.84898C23.6635 4.71987 23.5635 4.60744 23.4439 4.51873C23.3243 4.43001 23.1877 4.36691 23.0426 4.33336C22.9457 4.31759 22.8469 4.31759 22.7501 4.33336ZM19.7709 11.9167H8.93758L6.96591 6.50003H21.3092L19.7709 11.9167Z" fill="#5E6775"/>
<path d="M11.375 22.75C12.2725 22.75 13 22.0225 13 21.125C13 20.2275 12.2725 19.5 11.375 19.5C10.4775 19.5 9.75 20.2275 9.75 21.125C9.75 22.0225 10.4775 22.75 11.375 22.75Z" fill="#5E6775"/>
<path d="M17.875 22.75C18.7725 22.75 19.5 22.0225 19.5 21.125C19.5 20.2275 18.7725 19.5 17.875 19.5C16.9775 19.5 16.25 20.2275 16.25 21.125C16.25 22.0225 16.9775 22.75 17.875 22.75Z" fill="#5E6775"/>
</g>
<g filter="url(#filter1_d_0_1)">
</g>
</g>
<defs>
<filter id="filter0_d_0_1" x="-451" y="-507" width="520" height="579" filterUnits="userSpaceOnUse" color-interpolation-filters="sRGB">
<feFlood flood-opacity="0" result="BackgroundImageFix"/>
<feColorMatrix in="SourceAlpha" type="matrix" values="0 0 0 0 0 0 0 0 0 0 0 0 0 0 0 0 0 0 127 0" result="hardAlpha"/>
<feOffset dy="4"/>
<feGaussianBlur stdDeviation="2"/>
<feComposite in2="hardAlpha" operator="out"/>
<feColorMatrix type="matrix" values="0 0 0 0 0.85 0 0 0 0 0.925 0 0 0 0 1 0 0 0 0.5 0"/>
<feBlend mode="normal" in2="BackgroundImageFix" result="effect1_dropShadow_0_1"/>
<feBlend mode="normal" in="SourceGraphic" in2="effect1_dropShadow_0_1" result="shape"/>
</filter>
<filter id="filter1_d_0_1" x="-427.196" y="13.688" width="1608.2" height="679.312" filterUnits="userSpaceOnUse" color-interpolation-filters="sRGB">
<feFlood flood-opacity="0" result="BackgroundImageFix"/>
<feColorMatrix in="SourceAlpha" type="matrix" values="0 0 0 0 0 0 0 0 0 0 0 0 0 0 0 0 0 0 127 0" result="hardAlpha"/>
<feOffset dy="4"/>
<feGaussianBlur stdDeviation="2"/>
<feComposite in2="hardAlpha" operator="out"/>
<feColorMatrix type="matrix" values="0 0 0 0 0.85 0 0 0 0 0.925 0 0 0 0 1 0 0 0 0.5 0"/>
<feBlend mode="normal" in2="BackgroundImageFix" result="effect1_dropShadow_0_1"/>
<feBlend mode="normal" in="SourceGraphic" in2="effect1_dropShadow_0_1" result="shape"/>
</filter>
<linearGradient id="paint0_linear_0_1" x1="2285" y1="939" x2="2285" y2="3296.5" gradientUnits="userSpaceOnUse">
<stop stop-color="#D9ECFF"/>
<stop offset="1" stop-color="#F0F3FF" stop-opacity="0"/>
</linearGradient>
<clipPath id="clip0_0_1">
<rect width="1920" height="7793" fill="white" transform="translate(-595 -2133)"/>
</clipPath>
</defs>
</svg>
